<mxfile host="app.diagrams.net" agent="Mozilla/5.0 (Windows NT 10.0; Win64; x64) AppleWebKit/537.36 (KHTML, like Gecko) Chrome/127.0.0.0 Safari/537.36" version="24.7.7">
  <diagram name="Page-1" id="74b105a0-9070-1c63-61bc-23e55f88626e">
    <mxGraphModel dx="989" dy="771" grid="1" gridSize="10" guides="1" tooltips="1" connect="1" arrows="1" fold="1" page="1" pageScale="1.5" pageWidth="1169" pageHeight="826" background="none" math="0" shadow="0">
      <root>
        <mxCell id="0" style=";html=1;" />
        <mxCell id="1" style=";html=1;" parent="0" />
        <mxCell id="10b056a9c633e61c-4" value="" style="strokeWidth=2;dashed=0;align=center;fontSize=12;shape=rect;verticalLabelPosition=bottom;verticalAlign=top;fillColor=#c0f5a9" parent="1" vertex="1">
          <mxGeometry x="497" y="530" width="156" height="90" as="geometry" />
        </mxCell>
        <mxCell id="10b056a9c633e61c-15" value="Database" style="strokeWidth=2;dashed=0;align=center;fontSize=12;verticalLabelPosition=bottom;verticalAlign=top;shape=mxgraph.eip.message_store;fillColor=#c0f5a9" parent="1" vertex="1">
          <mxGeometry x="500" y="720" width="150" height="90" as="geometry" />
        </mxCell>
        <mxCell id="Us7Hmn0wMwFKB3MeF40_-1" value="" style="strokeWidth=2;dashed=0;align=center;fontSize=12;shape=rect;verticalLabelPosition=bottom;verticalAlign=top;fillColor=#c0f5a9" parent="1" vertex="1">
          <mxGeometry x="1040" y="360" width="150" height="90" as="geometry" />
        </mxCell>
        <mxCell id="Us7Hmn0wMwFKB3MeF40_-2" value="" style="strokeWidth=2;dashed=0;align=center;fontSize=12;shape=rect;verticalLabelPosition=bottom;verticalAlign=top;fillColor=#c0f5a9" parent="1" vertex="1">
          <mxGeometry x="1040" y="720" width="150" height="90" as="geometry" />
        </mxCell>
        <mxCell id="Us7Hmn0wMwFKB3MeF40_-3" value="Database" style="strokeWidth=2;dashed=0;align=center;fontSize=12;verticalLabelPosition=bottom;verticalAlign=top;shape=mxgraph.eip.message_store;fillColor=#c0f5a9" parent="1" vertex="1">
          <mxGeometry x="1280" y="360" width="150" height="90" as="geometry" />
        </mxCell>
        <mxCell id="Us7Hmn0wMwFKB3MeF40_-4" value="Database" style="strokeWidth=2;dashed=0;align=center;fontSize=12;verticalLabelPosition=bottom;verticalAlign=top;shape=mxgraph.eip.message_store;fillColor=#c0f5a9" parent="1" vertex="1">
          <mxGeometry x="1280" y="720" width="150" height="90" as="geometry" />
        </mxCell>
        <mxCell id="Us7Hmn0wMwFKB3MeF40_-5" value="&lt;b&gt;&lt;font style=&quot;font-size: 18px;&quot;&gt;Order Service&lt;/font&gt;&lt;/b&gt;" style="text;html=1;align=center;verticalAlign=middle;whiteSpace=wrap;rounded=0;" parent="1" vertex="1">
          <mxGeometry x="497" y="530" width="156" height="50" as="geometry" />
        </mxCell>
        <mxCell id="Us7Hmn0wMwFKB3MeF40_-7" value="Saga Coordinator" style="text;html=1;align=center;verticalAlign=middle;whiteSpace=wrap;rounded=0;" parent="1" vertex="1">
          <mxGeometry x="497" y="540" width="156" height="90" as="geometry" />
        </mxCell>
        <mxCell id="Us7Hmn0wMwFKB3MeF40_-8" value="&lt;b&gt;&lt;font style=&quot;font-size: 18px;&quot;&gt;Payment&amp;nbsp;&lt;/font&gt;&lt;/b&gt;&lt;div&gt;&lt;b&gt;&lt;font style=&quot;font-size: 18px;&quot;&gt;Service&lt;/font&gt;&lt;/b&gt;&lt;/div&gt;" style="text;html=1;align=center;verticalAlign=middle;whiteSpace=wrap;rounded=0;" parent="1" vertex="1">
          <mxGeometry x="1040" y="360" width="150" height="90" as="geometry" />
        </mxCell>
        <mxCell id="Us7Hmn0wMwFKB3MeF40_-9" value="&lt;b&gt;&lt;font style=&quot;font-size: 18px;&quot;&gt;Restaurant&lt;/font&gt;&lt;/b&gt;&lt;div&gt;&lt;b&gt;&lt;font style=&quot;font-size: 18px;&quot;&gt;Service&lt;/font&gt;&lt;/b&gt;&lt;/div&gt;" style="text;html=1;align=center;verticalAlign=middle;whiteSpace=wrap;rounded=0;" parent="1" vertex="1">
          <mxGeometry x="1040" y="720" width="150" height="90" as="geometry" />
        </mxCell>
        <mxCell id="Us7Hmn0wMwFKB3MeF40_-10" style="edgeStyle=orthogonalEdgeStyle;rounded=0;orthogonalLoop=1;jettySize=auto;html=1;exitX=0.5;exitY=1;exitDx=0;exitDy=0;" parent="1" source="Us7Hmn0wMwFKB3MeF40_-7" target="Us7Hmn0wMwFKB3MeF40_-7" edge="1">
          <mxGeometry relative="1" as="geometry" />
        </mxCell>
        <mxCell id="Us7Hmn0wMwFKB3MeF40_-11" value="" style="endArrow=classic;startArrow=classic;html=1;rounded=0;entryX=0;entryY=0.5;entryDx=0;entryDy=0;entryPerimeter=0;exitX=1;exitY=0.5;exitDx=0;exitDy=0;" parent="1" source="Us7Hmn0wMwFKB3MeF40_-8" target="Us7Hmn0wMwFKB3MeF40_-3" edge="1">
          <mxGeometry width="50" height="50" relative="1" as="geometry">
            <mxPoint x="1190" y="410" as="sourcePoint" />
            <mxPoint x="1240" y="360" as="targetPoint" />
          </mxGeometry>
        </mxCell>
        <mxCell id="Us7Hmn0wMwFKB3MeF40_-12" value="" style="endArrow=classic;startArrow=classic;html=1;rounded=0;entryX=0;entryY=0.5;entryDx=0;entryDy=0;entryPerimeter=0;exitX=1;exitY=0.5;exitDx=0;exitDy=0;" parent="1" edge="1">
          <mxGeometry width="50" height="50" relative="1" as="geometry">
            <mxPoint x="1190" y="764.38" as="sourcePoint" />
            <mxPoint x="1280" y="764.38" as="targetPoint" />
          </mxGeometry>
        </mxCell>
        <mxCell id="Us7Hmn0wMwFKB3MeF40_-13" value="" style="endArrow=classic;startArrow=classic;html=1;rounded=0;entryX=0.5;entryY=1;entryDx=0;entryDy=0;" parent="1" target="Us7Hmn0wMwFKB3MeF40_-7" edge="1">
          <mxGeometry width="50" height="50" relative="1" as="geometry">
            <mxPoint x="575" y="710" as="sourcePoint" />
            <mxPoint x="590" y="640" as="targetPoint" />
          </mxGeometry>
        </mxCell>
        <mxCell id="Us7Hmn0wMwFKB3MeF40_-14" value="" style="endArrow=classic;html=1;rounded=0;curved=1;dashed=1;dashPattern=8 8;" parent="1" edge="1">
          <mxGeometry relative="1" as="geometry">
            <mxPoint x="1320" y="850" as="sourcePoint" />
            <mxPoint x="620" y="850" as="targetPoint" />
            <Array as="points">
              <mxPoint x="1030" y="940" />
            </Array>
          </mxGeometry>
        </mxCell>
        <mxCell id="Us7Hmn0wMwFKB3MeF40_-15" value="&lt;font size=&quot;1&quot; style=&quot;&quot;&gt;&lt;b style=&quot;font-size: 18px;&quot;&gt;CQRS, Reataurant Table CDC(Log Tailing)&lt;/b&gt;&lt;/font&gt;" style="edgeLabel;resizable=0;html=1;;align=center;verticalAlign=middle;" parent="Us7Hmn0wMwFKB3MeF40_-14" connectable="0" vertex="1">
          <mxGeometry relative="1" as="geometry" />
        </mxCell>
        <mxCell id="Us7Hmn0wMwFKB3MeF40_-16" value="Source" style="edgeLabel;resizable=0;html=1;;align=left;verticalAlign=bottom;" parent="Us7Hmn0wMwFKB3MeF40_-14" connectable="0" vertex="1">
          <mxGeometry x="-1" relative="1" as="geometry" />
        </mxCell>
        <mxCell id="Us7Hmn0wMwFKB3MeF40_-17" value="Sink" style="edgeLabel;resizable=0;html=1;;align=right;verticalAlign=bottom;" parent="Us7Hmn0wMwFKB3MeF40_-14" connectable="0" vertex="1">
          <mxGeometry x="1" relative="1" as="geometry" />
        </mxCell>
        <mxCell id="Us7Hmn0wMwFKB3MeF40_-19" value="결제 요청 Topic" style="rounded=0;whiteSpace=wrap;html=1;fontStyle=1" parent="1" vertex="1">
          <mxGeometry x="790" y="400" width="120" height="30" as="geometry" />
        </mxCell>
        <mxCell id="Us7Hmn0wMwFKB3MeF40_-21" value="결제 응답 Topic" style="rounded=0;whiteSpace=wrap;html=1;fontStyle=1" parent="1" vertex="1">
          <mxGeometry x="790" y="460" width="120" height="30" as="geometry" />
        </mxCell>
        <mxCell id="Us7Hmn0wMwFKB3MeF40_-22" value="주문 요청 Topic" style="rounded=0;whiteSpace=wrap;html=1;fontStyle=1" parent="1" vertex="1">
          <mxGeometry x="790" y="660" width="120" height="30" as="geometry" />
        </mxCell>
        <mxCell id="Us7Hmn0wMwFKB3MeF40_-24" value="주문 응답 Topic" style="rounded=0;whiteSpace=wrap;html=1;fontStyle=1" parent="1" vertex="1">
          <mxGeometry x="790" y="720" width="120" height="30" as="geometry" />
        </mxCell>
        <mxCell id="Us7Hmn0wMwFKB3MeF40_-26" value="1. 주문 생성, 결제 요청" style="endArrow=classic;html=1;rounded=0;entryX=0;entryY=0.5;entryDx=0;entryDy=0;fontStyle=1" parent="1" edge="1">
          <mxGeometry width="50" height="50" relative="1" as="geometry">
            <mxPoint x="660" y="460" as="sourcePoint" />
            <mxPoint x="780" y="415" as="targetPoint" />
          </mxGeometry>
        </mxCell>
        <mxCell id="Us7Hmn0wMwFKB3MeF40_-29" value="결제 Outbox Table" style="rounded=0;whiteSpace=wrap;html=1;strokeWidth=2;fillColor=#ffe6cc;strokeColor=#d79b00;fontStyle=1" parent="1" vertex="1">
          <mxGeometry x="497" y="470" width="156" height="60" as="geometry" />
        </mxCell>
        <mxCell id="Us7Hmn0wMwFKB3MeF40_-30" value="주문 Outbox Table" style="rounded=0;whiteSpace=wrap;html=1;strokeWidth=2;fillColor=#ffe6cc;strokeColor=#d79b00;fontStyle=1" parent="1" vertex="1">
          <mxGeometry x="497" y="620" width="156" height="60" as="geometry" />
        </mxCell>
        <mxCell id="Us7Hmn0wMwFKB3MeF40_-31" value="주문 생성, 결제 요청" style="endArrow=classic;html=1;rounded=0;fontStyle=1" parent="1" edge="1">
          <mxGeometry width="50" height="50" relative="1" as="geometry">
            <mxPoint x="920" y="415" as="sourcePoint" />
            <mxPoint x="1030" y="380" as="targetPoint" />
          </mxGeometry>
        </mxCell>
        <mxCell id="Us7Hmn0wMwFKB3MeF40_-32" value="결제 승인" style="endArrow=classic;html=1;rounded=0;fontStyle=1" parent="1" edge="1">
          <mxGeometry width="50" height="50" relative="1" as="geometry">
            <mxPoint x="1030" y="440" as="sourcePoint" />
            <mxPoint x="920" y="480" as="targetPoint" />
          </mxGeometry>
        </mxCell>
        <mxCell id="Us7Hmn0wMwFKB3MeF40_-33" value="2. 결제 승인" style="endArrow=classic;html=1;rounded=0;fontStyle=1" parent="1" edge="1">
          <mxGeometry width="50" height="50" relative="1" as="geometry">
            <mxPoint x="780" y="470" as="sourcePoint" />
            <mxPoint x="670" y="510" as="targetPoint" />
          </mxGeometry>
        </mxCell>
        <mxCell id="Us7Hmn0wMwFKB3MeF40_-34" value="3. 결제 승인, 주문 요청" style="endArrow=classic;html=1;rounded=0;fontStyle=1" parent="1" edge="1">
          <mxGeometry width="50" height="50" relative="1" as="geometry">
            <mxPoint x="670" y="642" as="sourcePoint" />
            <mxPoint x="780" y="670" as="targetPoint" />
          </mxGeometry>
        </mxCell>
        <mxCell id="Us7Hmn0wMwFKB3MeF40_-35" value="결제 승인, 주문 요청" style="endArrow=classic;html=1;rounded=0;fontStyle=1" parent="1" edge="1">
          <mxGeometry width="50" height="50" relative="1" as="geometry">
            <mxPoint x="920" y="692" as="sourcePoint" />
            <mxPoint x="1030" y="720" as="targetPoint" />
          </mxGeometry>
        </mxCell>
        <mxCell id="Us7Hmn0wMwFKB3MeF40_-36" value="주문 응답" style="endArrow=classic;html=1;rounded=0;fontStyle=1" parent="1" edge="1">
          <mxGeometry width="50" height="50" relative="1" as="geometry">
            <mxPoint x="1030" y="770" as="sourcePoint" />
            <mxPoint x="920" y="740" as="targetPoint" />
          </mxGeometry>
        </mxCell>
        <mxCell id="Us7Hmn0wMwFKB3MeF40_-37" value="4. 주문 응답" style="endArrow=classic;html=1;rounded=0;fontStyle=1" parent="1" edge="1">
          <mxGeometry x="0.0062" width="50" height="50" relative="1" as="geometry">
            <mxPoint x="780" y="730" as="sourcePoint" />
            <mxPoint x="660" y="690" as="targetPoint" />
            <mxPoint as="offset" />
          </mxGeometry>
        </mxCell>
        <mxCell id="Us7Hmn0wMwFKB3MeF40_-41" value="" style="rounded=0;whiteSpace=wrap;html=1;fillColor=none;dashed=1;strokeWidth=2;" parent="1" vertex="1">
          <mxGeometry x="640" y="350" width="410" height="430" as="geometry" />
        </mxCell>
        <mxCell id="Us7Hmn0wMwFKB3MeF40_-42" value="&lt;font style=&quot;font-size: 20px;&quot;&gt;&lt;b&gt;Kafka, Transactional Outbox Pattern&lt;/b&gt;&lt;/font&gt;" style="text;html=1;align=center;verticalAlign=middle;whiteSpace=wrap;rounded=0;" parent="1" vertex="1">
          <mxGeometry x="630" y="280" width="370" height="90" as="geometry" />
        </mxCell>
      </root>
    </mxGraphModel>
  </diagram>
</mxfile>
